<svg width="125" height="43" viewBox="0 0 125 43" fill="none" xmlns="http://www.w3.org/2000/svg">
<path fill-rule="evenodd" clip-rule="evenodd" d="M2.13372 2.76058C-0.702124 5.59546 -0.702124 10.2409 2.13372 13.0758L10.0806 21.0227L2.13372 28.9695C-0.702124 31.8054 -0.702124 36.4499 2.13372 39.2847C4.9686 42.1196 9.61404 42.1196 12.4489 39.2847L22.3984 29.3353C26.9689 24.7647 26.9689 17.2806 22.3984 12.71L12.4489 2.76058C11.031 1.34266 9.16188 0.634186 7.2918 0.634186C5.42172 0.634186 3.55164 1.34266 2.13468 2.76058H2.13372Z" fill="#920D4D"/>
<path fill-rule="evenodd" clip-rule="evenodd" d="M10.6614 4.58938C10.6614 14.0569 13.2831 21.3539 18.5276 26.4793C19.6815 27.6083 20.919 28.6124 22.2399 29.4927L22.3983 29.3343C26.9689 24.7638 26.9689 17.2796 22.3983 12.7091L12.4489 2.75962C11.9103 2.22106 11.3065 1.78426 10.6623 1.45114V4.58938H10.6614Z" fill="#F40F5E"/>
<path fill-rule="evenodd" clip-rule="evenodd" d="M2.13372 28.9695C-0.702124 31.8054 -0.702124 36.4499 2.13372 39.2847C4.8198 41.9708 9.12924 42.1119 11.9862 39.71C12.0486 33.9606 10.8448 28.1046 8.68859 22.4147L2.13372 28.9695Z" fill="#6C14AC"/>
<path fill-rule="evenodd" clip-rule="evenodd" d="M30.3578 0.58429C34.3869 0.58429 37.6528 3.85021 37.6528 7.88029C37.6528 11.9094 34.3869 15.1753 30.3578 15.1753C26.3287 15.1753 23.0627 11.9094 23.0627 7.88029C23.0627 3.85117 26.3287 0.58429 30.3578 0.58429Z" fill="#E54722"/>
<path fill-rule="evenodd" clip-rule="evenodd" d="M25.2017 2.71163C27.0823 3.75803 29.0753 4.46555 31.1815 4.67579C33.2273 4.98587 35.1837 5.06747 37.0481 4.94651C36.6948 4.13435 36.1879 3.37403 35.5255 2.71163C34.1066 1.29275 32.2346 0.583313 30.3636 0.583313C28.4925 0.583313 26.6215 1.29276 25.2026 2.71068L25.2017 2.71163Z" fill="#7331F3"/>
<path fill-rule="evenodd" clip-rule="evenodd" d="M25.2006 13.0364C28.0518 15.8876 32.6732 15.8876 35.5244 13.0364C36.3212 12.2396 36.8943 11.2998 37.2438 10.2976C32.7999 8.10779 28.1554 6.61211 23.4006 5.67227C22.6076 8.18555 23.2076 11.0435 25.2006 13.0364Z" fill="#FEBA7E"/>
<path d="M30.8075 40.8575V34.8001H32.8542C33.3294 34.8001 33.7179 34.8859 34.0196 35.0574C34.3232 35.227 34.548 35.4567 34.6939 35.7466C34.8398 36.0364 34.9128 36.3598 34.9128 36.7167C34.9128 37.0736 34.8398 37.398 34.6939 37.6898C34.55 37.9816 34.3272 38.2143 34.0255 38.3878C33.7238 38.5594 33.3373 38.6452 32.8661 38.6452H31.399V37.9945H32.8424C33.1677 37.9945 33.429 37.9383 33.6262 37.8259C33.8234 37.7135 33.9663 37.5616 34.0551 37.3704C34.1458 37.1771 34.1911 36.9593 34.1911 36.7167C34.1911 36.4742 34.1458 36.2573 34.0551 36.066C33.9663 35.8748 33.8224 35.7249 33.6232 35.6165C33.4241 35.506 33.1599 35.4508 32.8306 35.4508H31.541V40.8575H30.8075ZM36.3429 34.8001L38.1412 39.8992H38.2121L40.0104 34.8001H40.7794L38.5552 40.8575H37.7981L35.5739 34.8001H36.3429ZM41.3917 35.4508V34.8001H45.9347V35.4508H44.03V40.8575H43.2965V35.4508H41.3917ZM47.1962 40.9049C47.0503 40.9049 46.9251 40.8526 46.8206 40.7481C46.7161 40.6436 46.6638 40.5184 46.6638 40.3725C46.6638 40.2266 46.7161 40.1014 46.8206 39.9968C46.9251 39.8923 47.0503 39.8401 47.1962 39.8401C47.3421 39.8401 47.4673 39.8923 47.5718 39.9968C47.6763 40.1014 47.7286 40.2266 47.7286 40.3725C47.7286 40.4691 47.7039 40.5578 47.6547 40.6387C47.6073 40.7195 47.5432 40.7846 47.4624 40.8339C47.3835 40.8812 47.2948 40.9049 47.1962 40.9049ZM51.4184 40.8575V34.8001H52.1519V40.2068H54.9676V40.8575H51.4184ZM54.9669 35.4508V34.8001H59.5099V35.4508H57.6052V40.8575H56.8716V35.4508H54.9669ZM62.5113 40.8575H60.642V34.8001H62.5941C63.1817 34.8001 63.6845 34.9214 64.1025 35.1639C64.5206 35.4045 64.841 35.7505 65.0638 36.2021C65.2866 36.6517 65.398 37.19 65.398 37.817C65.398 38.448 65.2856 38.9912 65.0608 39.4467C64.836 39.9002 64.5087 40.2492 64.0789 40.4937C63.649 40.7363 63.1265 40.8575 62.5113 40.8575ZM61.3755 40.2068H62.464C62.9648 40.2068 63.3799 40.1102 63.7092 39.917C64.0384 39.7237 64.2839 39.4487 64.4456 39.0918C64.6073 38.7349 64.6882 38.31 64.6882 37.817C64.6882 37.328 64.6083 36.907 64.4486 36.5541C64.2889 36.1991 64.0503 35.927 63.7328 35.7377C63.4154 35.5465 63.02 35.4508 62.5468 35.4508H61.3755V40.2068ZM66.6602 40.9049C66.5143 40.9049 66.3891 40.8526 66.2846 40.7481C66.1801 40.6436 66.1278 40.5184 66.1278 40.3725C66.1278 40.2266 66.1801 40.1014 66.2846 39.9968C66.3891 39.8923 66.5143 39.8401 66.6602 39.8401C66.8061 39.8401 66.9313 39.8923 67.0358 39.9968C67.1404 40.1014 67.1926 40.2266 67.1926 40.3725C67.1926 40.4691 67.168 40.5578 67.1187 40.6387C67.0713 40.7195 67.0073 40.7846 66.9264 40.8339C66.8475 40.8812 66.7588 40.9049 66.6602 40.9049Z" fill="#1A1A1A"/>
<path d="M30.6955 19.5992H32.13L33.5112 22.2079H33.5704L34.9516 19.5992H36.3861L34.1767 23.5152V25.6566H32.9049V23.5152L30.6955 19.5992ZM40.8271 19.5992H42.1078V23.5329C42.1078 23.9746 42.0023 24.3611 41.7913 24.6924C41.5823 25.0236 41.2895 25.2819 40.9129 25.4673C40.5363 25.6507 40.0976 25.7424 39.5967 25.7424C39.0939 25.7424 38.6542 25.6507 38.2776 25.4673C37.901 25.2819 37.6081 25.0236 37.3991 24.6924C37.1901 24.3611 37.0856 23.9746 37.0856 23.5329V19.5992H38.3663V23.4235C38.3663 23.6542 38.4166 23.8593 38.5172 24.0387C38.6197 24.2181 38.7636 24.3591 38.949 24.4617C39.1343 24.5642 39.3502 24.6155 39.5967 24.6155C39.8452 24.6155 40.0611 24.5642 40.2445 24.4617C40.4298 24.3591 40.5728 24.2181 40.6733 24.0387C40.7759 23.8593 40.8271 23.6542 40.8271 23.4235V19.5992ZM47.1781 21.5572C47.1367 21.4132 47.0785 21.2861 47.0036 21.1756C46.9286 21.0632 46.837 20.9686 46.7285 20.8917C46.622 20.8128 46.4998 20.7527 46.3618 20.7113C46.2257 20.6699 46.0749 20.6492 45.9092 20.6492C45.5996 20.6492 45.3275 20.7261 45.0929 20.8799C44.8602 21.0337 44.6788 21.2575 44.5487 21.5513C44.4185 21.8431 44.3535 22.2 44.3535 22.622C44.3535 23.0439 44.4175 23.4028 44.5457 23.6986C44.6739 23.9943 44.8553 24.2201 45.0899 24.3759C45.3246 24.5297 45.6016 24.6066 45.9211 24.6066C46.2109 24.6066 46.4584 24.5553 46.6634 24.4528C46.8705 24.3483 47.0282 24.2014 47.1367 24.0121C47.2471 23.8228 47.3023 23.599 47.3023 23.3407L47.5626 23.3791H46.0009V22.4149H48.5357V23.178C48.5357 23.7104 48.4233 24.1679 48.1985 24.5504C47.9737 24.931 47.6641 25.2248 47.2698 25.4318C46.8754 25.6369 46.4239 25.7394 45.9151 25.7394C45.3473 25.7394 44.8484 25.6142 44.4185 25.3638C43.9887 25.1114 43.6535 24.7535 43.4129 24.2901C43.1743 23.8248 43.055 23.2727 43.055 22.6338C43.055 22.1428 43.126 21.7051 43.268 21.3206C43.4119 20.9341 43.613 20.6068 43.8714 20.3386C44.1297 20.0704 44.4304 19.8663 44.7735 19.7263C45.1166 19.5863 45.4882 19.5163 45.8885 19.5163C46.2316 19.5163 46.551 19.5666 46.8468 19.6672C47.1426 19.7658 47.4048 19.9058 47.6336 20.0872C47.8643 20.2686 48.0526 20.4845 48.1985 20.7349C48.3444 20.9834 48.4381 21.2575 48.4795 21.5572H47.1781ZM50.3547 25.6566H48.9823L51.0734 19.5992H52.7238L54.8119 25.6566H53.4396L51.9223 20.9834H51.8749L50.3547 25.6566ZM50.2689 23.2756H53.5106V24.2753H50.2689V23.2756ZM60.6076 19.5992V25.6566H59.5014L56.8661 21.8441H56.8217V25.6566H55.541V19.5992H56.665L59.2796 23.4087H59.3328V19.5992H60.6076ZM63.813 25.6566H61.6657V19.5992H63.8308C64.4401 19.5992 64.9646 19.7204 65.4043 19.963C65.844 20.2035 66.1821 20.5496 66.4188 21.0011C66.6574 21.4527 66.7766 21.9929 66.7766 22.622C66.7766 23.2529 66.6574 23.7952 66.4188 24.2487C66.1821 24.7022 65.842 25.0503 65.3984 25.2928C64.9567 25.5353 64.4282 25.6566 63.813 25.6566ZM62.9464 24.5593H63.7598C64.1384 24.5593 64.4568 24.4922 64.7151 24.3581C64.9754 24.2221 65.1706 24.0121 65.3007 23.7281C65.4329 23.4422 65.4989 23.0735 65.4989 22.622C65.4989 22.1744 65.4329 21.8086 65.3007 21.5246C65.1706 21.2407 64.9764 21.0317 64.7181 20.8976C64.4598 20.7635 64.1413 20.6965 63.7627 20.6965H62.9464V24.5593ZM67.7253 25.6566V19.5992H69.006V22.0984H71.6059V19.5992H72.8836V25.6566H71.6059V23.1543H69.006V25.6566H67.7253ZM74.9836 25.6566H73.6112L75.7023 19.5992H77.3527L79.4408 25.6566H78.0685L76.5512 20.9834H76.5038L74.9836 25.6566ZM74.8978 23.2756H78.1395V24.2753H74.8978V23.2756ZM80.1699 25.6566V19.5992H82.5598C83.0172 19.5992 83.4076 19.681 83.731 19.8447C84.0564 20.0063 84.3038 20.2361 84.4734 20.5338C84.6449 20.8296 84.7307 21.1776 84.7307 21.5779C84.7307 21.9801 84.644 22.3262 84.4704 22.616C84.2969 22.9039 84.0455 23.1248 83.7162 23.2786C83.3889 23.4324 82.9926 23.5093 82.5272 23.5093H80.9271V22.48H82.3202C82.5647 22.48 82.7678 22.4465 82.9295 22.3794C83.0912 22.3124 83.2114 22.2118 83.2903 22.0777C83.3712 21.9437 83.4116 21.777 83.4116 21.5779C83.4116 21.3768 83.3712 21.2072 83.2903 21.0692C83.2114 20.9311 83.0902 20.8266 82.9265 20.7556C82.7648 20.6827 82.5607 20.6462 82.3143 20.6462H81.4506V25.6566H80.1699ZM83.4412 22.9L84.9466 25.6566H83.5328L82.0599 22.9H83.4412ZM86.6799 25.6566H85.3075L87.3986 19.5992H89.049L91.1371 25.6566H89.7648L88.2474 20.9834H88.2001L86.6799 25.6566ZM86.5941 23.2756H89.8357V24.2753H86.5941V23.2756Z" fill="#1A1A1A"/>
<path d="M34.3364 28.9378C34.3128 28.6992 34.2112 28.5138 34.0318 28.3817C33.8523 28.2496 33.6088 28.1835 33.3012 28.1835C33.0922 28.1835 32.9157 28.2131 32.7718 28.2723C32.6278 28.3295 32.5174 28.4093 32.4405 28.5118C32.3656 28.6144 32.3281 28.7307 32.3281 28.8609C32.3242 28.9693 32.3469 29.064 32.3962 29.1448C32.4474 29.2256 32.5174 29.2956 32.6062 29.3548C32.6949 29.412 32.7974 29.4623 32.9138 29.5056C33.0301 29.547 33.1543 29.5825 33.2864 29.6121L33.8307 29.7423C34.0949 29.8014 34.3374 29.8803 34.5582 29.9789C34.7791 30.0775 34.9704 30.1987 35.132 30.3427C35.2937 30.4866 35.4189 30.6562 35.5077 30.8514C35.5984 31.0466 35.6447 31.2704 35.6467 31.5228C35.6447 31.8935 35.5501 32.2149 35.3627 32.487C35.1774 32.7572 34.9092 32.9672 34.5582 33.117C34.2092 33.2649 33.7883 33.3389 33.2953 33.3389C32.8063 33.3389 32.3804 33.2639 32.0176 33.1141C31.6567 32.9642 31.3748 32.7424 31.1717 32.4486C30.9705 32.1528 30.865 31.787 30.8552 31.3513H32.0945C32.1083 31.5544 32.1664 31.7239 32.269 31.86C32.3735 31.9941 32.5125 32.0956 32.686 32.1646C32.8615 32.2317 33.0597 32.2652 33.2805 32.2652C33.4974 32.2652 33.6857 32.2337 33.8454 32.1706C34.0071 32.1075 34.1323 32.0197 34.2211 31.9073C34.3098 31.7949 34.3542 31.6658 34.3542 31.5199C34.3542 31.3838 34.3137 31.2694 34.2329 31.1768C34.154 31.0841 34.0377 31.0052 33.8839 30.9401C33.7321 30.8751 33.5457 30.8159 33.3249 30.7627L32.6653 30.597C32.1546 30.4728 31.7514 30.2786 31.4556 30.0144C31.1598 29.7501 31.0129 29.3942 31.0149 28.9466C31.0129 28.5799 31.1105 28.2595 31.3077 27.9854C31.5069 27.7113 31.78 27.4973 32.127 27.3435C32.474 27.1897 32.8684 27.1128 33.3101 27.1128C33.7597 27.1128 34.1521 27.1897 34.4873 27.3435C34.8244 27.4973 35.0867 27.7113 35.274 27.9854C35.4613 28.2595 35.558 28.5769 35.5639 28.9378H34.3364ZM36.2774 28.2516V27.1957H41.2523V28.2516H39.3978V33.2531H38.1319V28.2516H36.2774ZM42.0716 33.2531V27.1957H44.4614C44.9189 27.1957 45.3093 27.2775 45.6327 27.4411C45.958 27.6028 46.2055 27.8326 46.3751 28.1303C46.5466 28.4261 46.6324 28.7741 46.6324 29.1744C46.6324 29.5766 46.5456 29.9227 46.3721 30.2125C46.1986 30.5004 45.9472 30.7213 45.6179 30.8751C45.2906 31.0289 44.8942 31.1058 44.4289 31.1058H42.8288V30.0765H44.2218C44.4664 30.0765 44.6694 30.043 44.8311 29.9759C44.9928 29.9089 45.1131 29.8083 45.192 29.6742C45.2728 29.5401 45.3132 29.3735 45.3132 29.1744C45.3132 28.9733 45.2728 28.8037 45.192 28.6656C45.1131 28.5276 44.9918 28.4231 44.8282 28.3521C44.6665 28.2792 44.4624 28.2427 44.2159 28.2427H43.3523V33.2531H42.0716ZM45.3428 30.4965L46.8483 33.2531H45.4345L43.9616 30.4965H45.3428ZM48.5815 33.2531H47.2091L49.3002 27.1957H50.9506L53.0388 33.2531H51.6664L50.1491 28.5799H50.1018L48.5815 33.2531ZM48.4957 30.8721H51.7374V31.8718H48.4957V30.8721ZM52.797 28.2516V27.1957H57.7719V28.2516H55.9174V33.2531H54.6515V28.2516H52.797ZM58.5912 33.2531V27.1957H62.6728V28.2516H59.8719V29.6949H62.4628V30.7508H59.8719V32.1972H62.6846V33.2531H58.5912ZM67.7076 29.1537C67.6662 29.0097 67.608 28.8825 67.5331 28.7721C67.4582 28.6597 67.3665 28.5651 67.258 28.4882C67.1515 28.4093 67.0293 28.3492 66.8913 28.3078C66.7552 28.2664 66.6044 28.2456 66.4387 28.2456C66.1292 28.2456 65.857 28.3226 65.6224 28.4764C65.3897 28.6302 65.2083 28.854 65.0782 29.1478C64.948 29.4396 64.883 29.7965 64.883 30.2185C64.883 30.6404 64.9471 30.9993 65.0752 31.2951C65.2034 31.5908 65.3848 31.8166 65.6194 31.9724C65.8541 32.1262 66.1311 32.2031 66.4506 32.2031C66.7404 32.2031 66.9879 32.1518 67.1929 32.0493C67.4 31.9448 67.5577 31.7979 67.6662 31.6086C67.7766 31.4193 67.8318 31.1955 67.8318 30.9372L68.0921 30.9756H66.5304V30.0114H69.0652V30.7745C69.0652 31.3069 68.9528 31.7644 68.728 32.1469C68.5032 32.5275 68.1936 32.8213 67.7993 33.0283C67.4049 33.2334 66.9534 33.3359 66.4446 33.3359C65.8768 33.3359 65.3779 33.2107 64.948 32.9603C64.5182 32.7079 64.183 32.35 63.9424 31.8866C63.7038 31.4213 63.5845 30.8692 63.5845 30.2303C63.5845 29.7393 63.6555 29.3016 63.7975 28.9171C63.9414 28.5306 64.1426 28.2033 64.4009 27.9351C64.6592 27.6669 64.9599 27.4628 65.303 27.3228C65.6461 27.1828 66.0177 27.1128 66.418 27.1128C66.7611 27.1128 67.0806 27.1631 67.3763 27.2637C67.6721 27.3623 67.9343 27.5023 68.1631 27.6837C68.3938 27.8651 68.5821 28.081 68.728 28.3314C68.8739 28.5799 68.9676 28.854 69.009 29.1537H67.7076ZM71.3079 27.1957V33.2531H70.0272V27.1957H71.3079ZM77.7061 29.3163H76.4107C76.387 29.1487 76.3387 28.9999 76.2657 28.8697C76.1928 28.7376 76.0991 28.6252 75.9848 28.5325C75.8704 28.4399 75.7383 28.3689 75.5884 28.3196C75.4405 28.2703 75.2798 28.2456 75.1063 28.2456C74.7928 28.2456 74.5197 28.3235 74.287 28.4793C74.0544 28.6331 73.8739 28.8579 73.7458 29.1537C73.6176 29.4475 73.5535 29.8044 73.5535 30.2244C73.5535 30.6562 73.6176 31.019 73.7458 31.3128C73.8759 31.6066 74.0573 31.8284 74.29 31.9783C74.5227 32.1282 74.7918 32.2031 75.0974 32.2031C75.269 32.2031 75.4277 32.1804 75.5736 32.1351C75.7215 32.0897 75.8526 32.0237 75.967 31.9369C76.0814 31.8482 76.176 31.7407 76.2509 31.6145C76.3278 31.4883 76.3811 31.3444 76.4107 31.1827L77.7061 31.1886C77.6726 31.4666 77.5888 31.7348 77.4547 31.9931C77.3226 32.2494 77.1442 32.4791 76.9194 32.6822C76.6966 32.8834 76.4304 33.0431 76.1208 33.1614C75.8132 33.2777 75.4652 33.3359 75.0767 33.3359C74.5365 33.3359 74.0534 33.2136 73.6275 32.9691C73.2035 32.7246 72.8683 32.3707 72.6218 31.9073C72.3773 31.4439 72.2551 30.883 72.2551 30.2244C72.2551 29.5638 72.3793 29.0018 72.6277 28.5385C72.8762 28.0751 73.2134 27.7221 73.6393 27.4796C74.0652 27.2351 74.5443 27.1128 75.0767 27.1128C75.4277 27.1128 75.7531 27.1621 76.0528 27.2607C76.3545 27.3593 76.6216 27.5033 76.8543 27.6926C77.087 27.8799 77.2763 28.1096 77.4222 28.3817C77.5701 28.6538 77.6647 28.9654 77.7061 29.3163ZM80.5522 33.2531V27.1957H81.8329V29.6949H84.4327V27.1957H85.7105V33.2531H84.4327V30.7508H81.8329V33.2531H80.5522ZM92.3328 30.2244C92.3328 30.8849 92.2076 31.4469 91.9572 31.9103C91.7087 32.3737 91.3696 32.7276 90.9397 32.9721C90.5118 33.2146 90.0307 33.3359 89.4963 33.3359C88.958 33.3359 88.4749 33.2136 88.0471 32.9691C87.6192 32.7246 87.281 32.3707 87.0326 31.9073C86.7841 31.4439 86.6599 30.883 86.6599 30.2244C86.6599 29.5638 86.7841 29.0018 87.0326 28.5385C87.281 28.0751 87.6192 27.7221 88.0471 27.4796C88.4749 27.2351 88.958 27.1128 89.4963 27.1128C90.0307 27.1128 90.5118 27.2351 90.9397 27.4796C91.3696 27.7221 91.7087 28.0751 91.9572 28.5385C92.2076 29.0018 92.3328 29.5638 92.3328 30.2244ZM91.0344 30.2244C91.0344 29.7965 90.9703 29.4356 90.8421 29.1418C90.7159 28.848 90.5375 28.6252 90.3068 28.4734C90.0761 28.3216 89.8059 28.2456 89.4963 28.2456C89.1868 28.2456 88.9166 28.3216 88.6859 28.4734C88.4552 28.6252 88.2758 28.848 88.1476 29.1418C88.0214 29.4356 87.9583 29.7965 87.9583 30.2244C87.9583 30.6523 88.0214 31.0131 88.1476 31.3069C88.2758 31.6007 88.4552 31.8235 88.6859 31.9753C88.9166 32.1272 89.1868 32.2031 89.4963 32.2031C89.8059 32.2031 90.0761 32.1272 90.3068 31.9753C90.5375 31.8235 90.7159 31.6007 90.8421 31.3069C90.9703 31.0131 91.0344 30.6523 91.0344 30.2244ZM93.2815 33.2531V27.1957H94.5622V32.1972H97.159V33.2531H93.2815ZM100.154 33.2531H98.0072V27.1957H100.172C100.782 27.1957 101.306 27.3169 101.746 27.5595C102.185 27.8 102.524 28.1461 102.76 28.5976C102.999 29.0492 103.118 29.5894 103.118 30.2185C103.118 30.8494 102.999 31.3917 102.76 31.8452C102.524 32.2987 102.183 32.6467 101.74 32.8893C101.298 33.1318 100.77 33.2531 100.154 33.2531ZM99.2879 32.1558H100.101C100.48 32.1558 100.798 32.0887 101.057 31.9546C101.317 31.8186 101.512 31.6086 101.642 31.3246C101.774 31.0387 101.84 30.67 101.84 30.2185C101.84 29.7709 101.774 29.4051 101.642 29.1211C101.512 28.8372 101.318 28.6282 101.06 28.4941C100.801 28.36 100.483 28.293 100.104 28.293H99.2879V32.1558ZM105.347 27.1957V33.2531H104.067V27.1957H105.347ZM111.468 27.1957V33.2531H110.362L107.726 29.4406H107.682V33.2531H106.401V27.1957H107.525L110.14 31.0052H110.193V27.1957H111.468ZM116.542 29.1537C116.501 29.0097 116.443 28.8825 116.368 28.7721C116.293 28.6597 116.201 28.5651 116.093 28.4882C115.986 28.4093 115.864 28.3492 115.726 28.3078C115.59 28.2664 115.439 28.2456 115.274 28.2456C114.964 28.2456 114.692 28.3226 114.457 28.4764C114.225 28.6302 114.043 28.854 113.913 29.1478C113.783 29.4396 113.718 29.7965 113.718 30.2185C113.718 30.6404 113.782 30.9993 113.91 31.2951C114.038 31.5908 114.22 31.8166 114.454 31.9724C114.689 32.1262 114.966 32.2031 115.285 32.2031C115.575 32.2031 115.823 32.1518 116.028 32.0493C116.235 31.9448 116.393 31.7979 116.501 31.6086C116.611 31.4193 116.667 31.1955 116.667 30.9372L116.927 30.9756H115.365V30.0114H117.9V30.7745C117.9 31.3069 117.788 31.7644 117.563 32.1469C117.338 32.5275 117.028 32.8213 116.634 33.0283C116.24 33.2334 115.788 33.3359 115.279 33.3359C114.712 33.3359 114.213 33.2107 113.783 32.9603C113.353 32.7079 113.018 32.35 112.777 31.8866C112.539 31.4213 112.419 30.8692 112.419 30.2303C112.419 29.7393 112.49 29.3016 112.632 28.9171C112.776 28.5306 112.977 28.2033 113.236 27.9351C113.494 27.6669 113.795 27.4628 114.138 27.3228C114.481 27.1828 114.853 27.1128 115.253 27.1128C115.596 27.1128 115.915 27.1631 116.211 27.2637C116.507 27.3623 116.769 27.5023 116.998 27.6837C117.229 27.8651 117.417 28.081 117.563 28.3314C117.709 28.5799 117.802 28.854 117.844 29.1537H116.542ZM122.148 28.9378C122.124 28.6992 122.023 28.5138 121.843 28.3817C121.664 28.2496 121.42 28.1835 121.113 28.1835C120.904 28.1835 120.727 28.2131 120.583 28.2723C120.439 28.3295 120.329 28.4093 120.252 28.5118C120.177 28.6144 120.14 28.7307 120.14 28.8609C120.136 28.9693 120.158 29.064 120.208 29.1448C120.259 29.2256 120.329 29.2956 120.418 29.3548C120.507 29.412 120.609 29.4623 120.725 29.5056C120.842 29.547 120.966 29.5825 121.098 29.6121L121.642 29.7423C121.906 29.8014 122.149 29.8803 122.37 29.9789C122.591 30.0775 122.782 30.1987 122.944 30.3427C123.105 30.4866 123.231 30.6562 123.319 30.8514C123.41 31.0466 123.456 31.2704 123.458 31.5228C123.456 31.8935 123.362 32.2149 123.174 32.487C122.989 32.7572 122.721 32.9672 122.37 33.117C122.021 33.2649 121.6 33.3389 121.107 33.3389C120.618 33.3389 120.192 33.2639 119.829 33.1141C119.468 32.9642 119.186 32.7424 118.983 32.4486C118.782 32.1528 118.677 31.787 118.667 31.3513H119.906C119.92 31.5544 119.978 31.7239 120.081 31.86C120.185 31.9941 120.324 32.0956 120.498 32.1646C120.673 32.2317 120.871 32.2652 121.092 32.2652C121.309 32.2652 121.497 32.2337 121.657 32.1706C121.819 32.1075 121.944 32.0197 122.033 31.9073C122.121 31.7949 122.166 31.6658 122.166 31.5199C122.166 31.3838 122.125 31.2694 122.045 31.1768C121.966 31.0841 121.849 31.0052 121.696 30.9401C121.544 30.8751 121.357 30.8159 121.136 30.7627L120.477 30.597C119.966 30.4728 119.563 30.2786 119.267 30.0144C118.971 29.7501 118.825 29.3942 118.827 28.9466C118.825 28.5799 118.922 28.2595 119.119 27.9854C119.318 27.7113 119.592 27.4973 119.939 27.3435C120.286 27.1897 120.68 27.1128 121.122 27.1128C121.571 27.1128 121.964 27.1897 122.299 27.3435C122.636 27.4973 122.898 27.7113 123.086 27.9854C123.273 28.2595 123.37 28.5769 123.375 28.9378H122.148Z" fill="#1A1A1A"/>
</svg>
